<svg xmlns="http://www.w3.org/2000/svg" viewBox="0 0 58.49 58.49"><defs><style>.cls-1{fill:#fff;}.cls-2{fill:#005092;}</style></defs><g id="Capa_2" data-name="Capa 2"><g id="Object"><path class="cls-1" d="M58.49,29.24A29.25,29.25,0,1,0,24.67,58.13V37.7H17.25V29.24h7.42V22.8c0-7.33,4.37-11.38,11-11.38a44.91,44.91,0,0,1,6.54.57v7.2H38.58c-3.64,0-4.77,2.25-4.77,4.57v5.48h8.11L40.63,37.7H33.81V58.13A29.25,29.25,0,0,0,58.49,29.24Z"/><path class="cls-2" d="M40.63,37.7l1.29-8.46H33.81V23.76c0-2.32,1.13-4.57,4.77-4.57h3.68V12a44.91,44.91,0,0,0-6.54-.57c-6.68,0-11,4.05-11,11.38v6.44H17.25V37.7h7.42V58.13a29.19,29.19,0,0,0,9.14,0V37.7Z"/></g></g></svg>