<svg xmlns="http://www.w3.org/2000/svg" viewBox="0 0 58.49 58.49"><defs><style>.cls-1{fill:#fff;}.cls-2{fill:#005092;}</style></defs><g id="Capa_2" data-name="Capa 2"><g id="Object"><circle class="cls-1" cx="29.24" cy="29.24" r="29.24"/><path class="cls-2" d="M38.32,18.22a2,2,0,1,0,2,2A2,2,0,0,0,38.32,18.22Z"/><path class="cls-2" d="M29.38,20.8a8.45,8.45,0,1,0,8.45,8.44A8.45,8.45,0,0,0,29.38,20.8Zm0,13.85a5.41,5.41,0,1,1,5.41-5.41A5.41,5.41,0,0,1,29.38,34.65Z"/><path class="cls-2" d="M36.09,46.39H22.4a10.31,10.31,0,0,1-10.3-10.3V22.4A10.31,10.31,0,0,1,22.4,12.1H36.09a10.31,10.31,0,0,1,10.3,10.3V36.09A10.31,10.31,0,0,1,36.09,46.39ZM22.4,15.33a7.08,7.08,0,0,0-7.08,7.07V36.09a7.08,7.08,0,0,0,7.08,7.07H36.09a7.08,7.08,0,0,0,7.07-7.07V22.4a7.08,7.08,0,0,0-7.07-7.07Z"/></g></g></svg>