<svg xmlns="http://www.w3.org/2000/svg" viewBox="0 0 580.05 412.36"><defs><style>.cls-1{fill:#9d999c;}.cls-2{fill:#005092;}.cls-3{font-size:49.47px;fill:#fff;font-family:Optima-Bold, Optima;font-weight:700;letter-spacing:0.05em;}.cls-4{letter-spacing:0.01em;}.cls-5{letter-spacing:0.05em;}</style></defs><g id="Capa_2" data-name="Capa 2"><g id="Object"><path class="cls-1" d="M171.74,246.29h4.68c-2.62-2.89-5.16-5.85-7.56-8.92a18.51,18.51,0,0,0,4.2-8.54,15.89,15.89,0,0,0-1.21-10,15.86,15.86,0,0,0-5.79,9.16,15,15,0,0,0,0,5.71q-3.66-5-6.94-10.23a17.72,17.72,0,0,0,2.62-3,18.23,18.23,0,0,0,2.45-5,15.68,15.68,0,0,0,.71-5.24,14,14,0,0,0-.85-4.86,16.06,16.06,0,0,0-6.76,8.49,14.56,14.56,0,0,0-.61,5.57q-3.09-5.28-5.77-10.79a18.24,18.24,0,0,0,5.88-7.44,15.79,15.79,0,0,0,.94-10,15.89,15.89,0,0,0-7.6,7.68,13.25,13.25,0,0,0-1.24,5.5c-1.32-2.94-2.57-5.91-3.72-8.92-.31-.8-.59-1.6-.88-2.41a18.07,18.07,0,0,0,6.68-6.79,15.4,15.4,0,0,0,2-9.87,15.69,15.69,0,0,0-8.35,6.8,13.45,13.45,0,0,0-1.87,5.48q-1.92-5.88-3.37-11.88a17.91,17.91,0,0,0,7.4-6.05,15.37,15.37,0,0,0,3.13-9.61,15.69,15.69,0,0,0-9.07,5.86,15,15,0,0,0-2.41,5c0,.1,0,.21-.06.31q-1.26-6.07-2-12.22a18.21,18.21,0,0,0,8-5.21,16.13,16.13,0,0,0,2.93-4.46,17.16,17.16,0,0,0,1.21-4.77,15.72,15.72,0,0,0-9.66,4.86,14.62,14.62,0,0,0-3,5q-.59-6.16-.69-12.38a18.59,18.59,0,0,0,8.53-4.32,14.68,14.68,0,0,0,5.07-8.74,15.7,15.7,0,0,0-10.05,3.81,15.52,15.52,0,0,0-3.56,4.62c.05-4.12.25-8.25.61-12.36a18.28,18.28,0,0,0,9-3.38,15.47,15.47,0,0,0,3.71-3.74,17.26,17.26,0,0,0,2.26-4.39,16.18,16.18,0,0,0-10.55,2.68,14.5,14.5,0,0,0-3.95,4.36c.48-4.14,1.14-8.26,1.94-12.35a17.8,17.8,0,0,0,9.21-2.41,15.08,15.08,0,0,0,6.89-7.42,15.84,15.84,0,0,0-10.67,1.54,15.32,15.32,0,0,0-4.33,3.5c-.05.06-.09.13-.14.2q1.37-6,3.18-11.91a18.41,18.41,0,0,0,9.58-1.34,16.37,16.37,0,0,0,7.57-6.65,17.52,17.52,0,0,0-5.4-.78,13.9,13.9,0,0,0-5.43,1.13,14.79,14.79,0,0,0-5,3.58c1.36-4,2.86-8,4.54-11.88a17.83,17.83,0,0,0,9.74-.3,15.41,15.41,0,0,0,8.32-5.76,15.84,15.84,0,0,0-10.77-.81,14.5,14.5,0,0,0-5,2.5c-.23.19-.44.39-.65.59,1.8-3.9,3.77-7.73,5.88-11.48a18.55,18.55,0,0,0,9.89.86,16,16,0,0,0,5-1.82,15.63,15.63,0,0,0,2-1.42,14.38,14.38,0,0,0,1.84-1.63,17.23,17.23,0,0,0-5.12-1.93,14,14,0,0,0-5.54-.06,14.84,14.84,0,0,0-6.19,2.78c1.29-2.16,2.62-4.3,4-6.39,1.07-1.59,2.18-3.15,3.3-4.7a17.79,17.79,0,0,0,9.77,1.9A15.47,15.47,0,0,0,184,45.23a15.85,15.85,0,0,0-10.35-3.08,14.28,14.28,0,0,0-5.37,1.37c-.45.23-.88.5-1.3.77,2.68-3.6,5.48-7.11,8.44-10.48A18.55,18.55,0,0,0,185.21,37a15.59,15.59,0,0,0,5.25-.72,17.78,17.78,0,0,0,2.29-1,12.82,12.82,0,0,0,2.14-1.21,17.31,17.31,0,0,0-4.59-3,14,14,0,0,0-5.4-1.24,14.93,14.93,0,0,0-7.51,1.84c1-1.09,2-2.19,3-3.25a95.43,95.43,0,0,1,7-6.78,17.82,17.82,0,0,0,9.51,4.25,15.43,15.43,0,0,0,10-1.77,15.82,15.82,0,0,0-9.45-5.22,14.52,14.52,0,0,0-5.55.19,14.89,14.89,0,0,0-2.82,1.11c2.13-1.85,4.28-3.67,6.41-5.53a17.41,17.41,0,0,0,9.66-3,20.82,20.82,0,0,0,4.37-3.94,16.68,16.68,0,0,0,2.77-4.88,18.67,18.67,0,0,0-3-.21,15.19,15.19,0,0,0-3,.43,17.18,17.18,0,0,0-5.56,2.41,15.43,15.43,0,0,0-6.18,8.31c-.83.6-1.66,1.22-2.48,1.83Q190,17.29,188,19a17.56,17.56,0,0,0,1.53-2.76,18.24,18.24,0,0,0,1.6-5.39A17.39,17.39,0,0,0,189,0a16.51,16.51,0,0,0-5.31,10.16,15.58,15.58,0,0,0,2.63,10.28c-3.59,3.11-7.07,6.37-10.38,9.77a17.12,17.12,0,0,0,1.79-7.67,19.85,19.85,0,0,0-.79-5.66,16.51,16.51,0,0,0-2.43-4.9,19.52,19.52,0,0,0-1.78,2.29,15,15,0,0,0-1.28,2.64,16.7,16.7,0,0,0-1.08,5.79,15,15,0,0,0,3.5,9.71c-2.28,2.44-4.5,5-6.61,7.55-.81,1-1.56,2-2.33,2.95.16-.55.31-1.1.42-1.67a18.31,18.31,0,0,0,.41-5.61,17.38,17.38,0,0,0-4.37-10.18,16.45,16.45,0,0,0-3,11.06,15.64,15.64,0,0,0,4.4,9.13c-2.65,3.52-5.11,7.16-7.42,10.86a17.5,17.5,0,0,0-.16-6.63,20.34,20.34,0,0,0-2-5.36,16.53,16.53,0,0,0-3.42-4.27,18.54,18.54,0,0,0-1.26,2.62,15.26,15.26,0,0,0-.67,2.86A16.39,16.39,0,0,0,148,51.6a15,15,0,0,0,5.15,8.47C151,63.8,149,67.6,147.09,71.48c0-.23,0-.46,0-.69a18,18,0,0,0-.8-5.57,17.34,17.34,0,0,0-6.44-9,16.53,16.53,0,0,0-.59,11.45,15.63,15.63,0,0,0,6,7.83q-2.61,5.87-4.71,11.9a17.7,17.7,0,0,0-1.55-6A20,20,0,0,0,136,76.6a16.32,16.32,0,0,0-4.25-3.44,15.71,15.71,0,0,0,.72,11.48,15,15,0,0,0,6.71,7.08c-1.31,4.14-2.41,8.32-3.36,12.53-.05-.22-.09-.45-.14-.68a17,17,0,0,0-2-5.25,17.51,17.51,0,0,0-8.26-7.42,16.87,16.87,0,0,0,1.89,11.31,15.65,15.65,0,0,0,7.56,6.34c-.83,4.17-1.51,8.36-2,12.57a17.93,17.93,0,0,0-2.83-5.44,17.12,17.12,0,0,0-8.9-6.45,15,15,0,0,0,.5,5.77,16.63,16.63,0,0,0,2.68,5.27,15.06,15.06,0,0,0,8.1,5.47q-.57,6.47-.61,13a17,17,0,0,0-3.33-5.34,17.57,17.57,0,0,0-9.7-5.46,17.21,17.21,0,0,0,4.34,10.63,15,15,0,0,0,8.68,4.57q.14,6.48.77,12.93a18,18,0,0,0-14.08-9.35,15.15,15.15,0,0,0,1.78,5.53,16.59,16.59,0,0,0,3.63,4.59,15.37,15.37,0,0,0,9.18,3.62q.81,6.42,2.11,12.77l-.38-.54a17.07,17.07,0,0,0-4-3.95,17.7,17.7,0,0,0-10.58-3.29,16.49,16.49,0,0,0,6.48,9.48,15.45,15.45,0,0,0,9.47,2.61c1,4.15,2.14,8.26,3.44,12.33a19.67,19.67,0,0,0-4.78-3.85,17.58,17.58,0,0,0-10.9-2.12,16.4,16.4,0,0,0,7.51,8.71,15.32,15.32,0,0,0,9.62,1.59c1.39,3.94,2.91,7.84,4.61,11.67a20.31,20.31,0,0,0-5-3.1,17.39,17.39,0,0,0-11-.94,16.13,16.13,0,0,0,8.41,7.85,15.11,15.11,0,0,0,9.65.56q2.7,5.61,5.83,11a17.71,17.71,0,0,0-5.22-2.47,17.17,17.17,0,0,0-11,.25,18.17,18.17,0,0,0,3.9,4.3,16.61,16.61,0,0,0,5.29,2.59,14.9,14.9,0,0,0,5.66.51,16.45,16.45,0,0,0,3.91-1c2.21,3.52,4.58,6.94,7.08,10.29a18.25,18.25,0,0,0-16.4-.46,16.06,16.06,0,0,0,9.86,5.87,15,15,0,0,0,9.52-1.52C167.89,241.88,169.79,244.1,171.74,246.29Z"/><path class="cls-1" d="M374.92,11.67a17.38,17.38,0,0,0,9.65,3c2.13,1.86,4.29,3.68,6.42,5.53a15.16,15.16,0,0,0-2.82-1.11,14.53,14.53,0,0,0-5.55-.19,15.82,15.82,0,0,0-9.45,5.22,15.38,15.38,0,0,0,10,1.77,17.75,17.75,0,0,0,9.51-4.25,95.43,95.43,0,0,1,7,6.78c1,1.06,2,2.16,3,3.25a15,15,0,0,0-7.52-1.84,14,14,0,0,0-5.4,1.24,17.47,17.47,0,0,0-4.59,3,12.82,12.82,0,0,0,2.14,1.21,17.78,17.78,0,0,0,2.29,1,15.59,15.59,0,0,0,5.25.72,18.55,18.55,0,0,0,9.77-3.15c3,3.37,5.76,6.88,8.44,10.48-.42-.27-.85-.54-1.29-.77a14.38,14.38,0,0,0-5.38-1.37A15.88,15.88,0,0,0,396,45.23a15.47,15.47,0,0,0,9.36,3.86,17.82,17.82,0,0,0,9.78-1.9c1.11,1.55,2.23,3.11,3.29,4.7,1.4,2.09,2.73,4.23,4,6.39a14.78,14.78,0,0,0-6.19-2.78,14,14,0,0,0-5.54.06,17.07,17.07,0,0,0-5.11,1.93,13.64,13.64,0,0,0,1.83,1.63,17.13,17.13,0,0,0,2,1.42,16,16,0,0,0,5,1.82,18.54,18.54,0,0,0,9.89-.86c2.12,3.75,4.09,7.58,5.88,11.48-.21-.2-.42-.4-.64-.59a14.54,14.54,0,0,0-5-2.5,15.81,15.81,0,0,0-10.76.81,15.35,15.35,0,0,0,8.31,5.76,17.87,17.87,0,0,0,9.75.3c1.67,3.9,3.18,7.87,4.53,11.88a14.85,14.85,0,0,0-5-3.58A13.9,13.9,0,0,0,426,83.93a17.58,17.58,0,0,0-5.41.78,16.35,16.35,0,0,0,7.58,6.65,18.4,18.4,0,0,0,9.58,1.34q1.82,5.89,3.17,11.91c-.05-.07-.09-.14-.14-.2a15.42,15.42,0,0,0-4.32-3.5,15.86,15.86,0,0,0-10.68-1.54,15.08,15.08,0,0,0,6.89,7.42,17.83,17.83,0,0,0,9.22,2.41q1.2,6.14,1.94,12.35a14.67,14.67,0,0,0-4-4.36,16.18,16.18,0,0,0-10.55-2.68,17.29,17.29,0,0,0,2.27,4.39,15.24,15.24,0,0,0,3.7,3.74,18.31,18.31,0,0,0,9,3.38c.37,4.11.56,8.24.61,12.36a15.36,15.36,0,0,0-3.56-4.62A15.7,15.7,0,0,0,431.3,130a14.68,14.68,0,0,0,5.07,8.74A18.68,18.68,0,0,0,444.9,143q-.11,6.21-.69,12.38a14.62,14.62,0,0,0-3-5,15.67,15.67,0,0,0-9.66-4.86,16.84,16.84,0,0,0,1.22,4.77,15.9,15.9,0,0,0,2.93,4.46,18.23,18.23,0,0,0,8,5.21q-.76,6.14-2,12.22c0-.1,0-.21-.06-.31a15.24,15.24,0,0,0-2.42-5,15.69,15.69,0,0,0-9.06-5.86,15.36,15.36,0,0,0,3.12,9.61,18,18,0,0,0,7.41,6.05q-1.44,6-3.38,11.88a13.59,13.59,0,0,0-1.86-5.48,15.69,15.69,0,0,0-8.35-6.8,15.33,15.33,0,0,0,2,9.87,18.1,18.1,0,0,0,6.69,6.79c-.3.81-.58,1.61-.89,2.41-1.14,3-2.39,6-3.72,8.92a13.09,13.09,0,0,0-1.24-5.5,15.91,15.91,0,0,0-7.59-7.68,15.73,15.73,0,0,0,.94,10,18.3,18.3,0,0,0,5.87,7.44q-2.67,5.51-5.76,10.79a14.57,14.57,0,0,0-.62-5.57,16.09,16.09,0,0,0-6.75-8.49,13.73,13.73,0,0,0-.86,4.86,15.44,15.44,0,0,0,.72,5.24,18,18,0,0,0,5.06,8q-3.27,5.25-6.93,10.23a15.23,15.23,0,0,0,0-5.71,15.91,15.91,0,0,0-5.79-9.16,16,16,0,0,0-1.22,10,18.51,18.51,0,0,0,4.2,8.54c-2.4,3.07-4.94,6-7.56,8.92h4.68c1.95-2.19,3.85-4.41,5.66-6.69a15,15,0,0,0,9.52,1.52,16,16,0,0,0,9.86-5.87,18.22,18.22,0,0,0-16.39.46c2.49-3.35,4.87-6.77,7.07-10.29a16.45,16.45,0,0,0,3.91,1,14.9,14.9,0,0,0,5.66-.51,16.4,16.4,0,0,0,5.29-2.59,18,18,0,0,0,3.9-4.3,17.17,17.17,0,0,0-11-.25,18,18,0,0,0-5.22,2.47q3.15-5.4,5.83-11a15.15,15.15,0,0,0,9.66-.56,16.11,16.11,0,0,0,8.4-7.85,17.36,17.36,0,0,0-11,.94,20.37,20.37,0,0,0-5,3.1c1.7-3.83,3.23-7.73,4.62-11.67a15.32,15.32,0,0,0,9.62-1.59,16.48,16.48,0,0,0,7.51-8.71,17.58,17.58,0,0,0-10.9,2.12,19.53,19.53,0,0,0-4.79,3.85c1.31-4.07,2.47-8.18,3.45-12.33a15.46,15.46,0,0,0,9.47-2.61,16.52,16.52,0,0,0,6.47-9.48,17.7,17.7,0,0,0-10.58,3.29,17.21,17.21,0,0,0-4,3.95c-.14.18-.26.36-.39.54.88-4.23,1.57-8.49,2.11-12.77a15.32,15.32,0,0,0,9.18-3.62,16.23,16.23,0,0,0,3.63-4.59,15,15,0,0,0,1.78-5.53,17.69,17.69,0,0,0-10.14,4.41A17.45,17.45,0,0,0,447.5,156q.63-6.45.76-12.93a15,15,0,0,0,8.69-4.57,17.26,17.26,0,0,0,4.34-10.63,17.5,17.5,0,0,0-9.7,5.46,16.83,16.83,0,0,0-3.33,5.34q-.06-6.48-.61-13a15.09,15.09,0,0,0,8.1-5.47,17.05,17.05,0,0,0,2.68-5.27,14.82,14.82,0,0,0,.49-5.77,17.16,17.16,0,0,0-8.9,6.45,17.9,17.9,0,0,0-2.82,5.44c-.49-4.21-1.18-8.4-2-12.57a15.63,15.63,0,0,0,7.55-6.34,16.81,16.81,0,0,0,1.89-11.31,17.44,17.44,0,0,0-8.25,7.42,16.55,16.55,0,0,0-2,5.25c-.06.23-.1.46-.14.68-1-4.21-2.06-8.39-3.36-12.53a15,15,0,0,0,6.7-7.08,15.76,15.76,0,0,0,.73-11.48,16.36,16.36,0,0,0-4.26,3.44A20,20,0,0,0,441,81.4a17.49,17.49,0,0,0-1.56,6q-2.1-6-4.7-11.9a15.61,15.61,0,0,0,6-7.83,16.48,16.48,0,0,0-.58-11.45,17.36,17.36,0,0,0-6.45,9,18.35,18.35,0,0,0-.8,5.57c0,.23,0,.46,0,.69-1.85-3.88-3.91-7.68-6.1-11.41A14.94,14.94,0,0,0,432,51.6a16.63,16.63,0,0,0,.18-5.88,15.28,15.28,0,0,0-.68-2.86,18.54,18.54,0,0,0-1.26-2.62,16.29,16.29,0,0,0-3.41,4.27,20,20,0,0,0-2,5.36,17.29,17.29,0,0,0-.15,6.63c-2.32-3.7-4.77-7.34-7.43-10.86a15.52,15.52,0,0,0,4.4-9.13,16.4,16.4,0,0,0-3-11.06,17.38,17.38,0,0,0-4.37,10.18,18.62,18.62,0,0,0,.41,5.61,15.72,15.72,0,0,0,.43,1.67c-.78-1-1.53-2-2.33-2.95q-3.18-3.9-6.62-7.55a14.93,14.93,0,0,0,3.5-9.71,16.47,16.47,0,0,0-1.08-5.79,14.92,14.92,0,0,0-1.27-2.64A18.59,18.59,0,0,0,405.53,12a16.51,16.51,0,0,0-2.43,4.9,20.21,20.21,0,0,0-.79,5.66,17.26,17.26,0,0,0,1.79,7.67c-3.31-3.4-6.78-6.66-10.37-9.77a15.58,15.58,0,0,0,2.62-10.28A16.46,16.46,0,0,0,391,0,17.31,17.31,0,0,0,389,10.88a18,18,0,0,0,1.6,5.39A16.79,16.79,0,0,0,392.08,19c-1.36-1.16-2.73-2.3-4.13-3.41-.82-.61-1.64-1.23-2.48-1.83a15.38,15.38,0,0,0-6.18-8.31,17.13,17.13,0,0,0-5.55-2.41,15.18,15.18,0,0,0-3-.43,18.67,18.67,0,0,0-3,.21,16.93,16.93,0,0,0,2.78,4.88A20.82,20.82,0,0,0,374.92,11.67Z"/><polygon class="cls-2" points="217.48 230.1 205.94 230.1 209.15 223.69 220.68 100.29 212.33 88.82 219.78 88.82 284.76 220.32 276.3 220.32 226.45 115.74 217.48 230.1"/><polygon class="cls-2" points="226.07 88.83 289.87 219.85 340.8 108.37 352.02 225.93 349.45 230.82 359.06 230.82 345.38 88.82 335.66 88.82 339.84 96.2 289.23 206.07 236.7 96.2 236.71 88.82 226.07 88.83"/><polygon class="cls-2" points="364.97 230.82 349.45 88.83 359.06 88.83 356.82 92.03 370.27 226.25 374.11 230.82 364.97 230.82"/><path class="cls-2" d="M281.42,53.26c15.5-4.12,31.18,2.49,32.08,17.94a4.62,4.62,0,0,1-4.63,4.62,4.25,4.25,0,0,1-.8-.07,4.57,4.57,0,0,1-3.53-4.21C304.08,66.93,301.07,53,281.42,53.26Z"/><path class="cls-2" d="M297.46,129.88c-15.5,4.13-31.18-2.48-32.07-17.94a4.62,4.62,0,0,1,4.62-4.62,4.25,4.25,0,0,1,.8.07,4.58,4.58,0,0,1,3.54,4.21C274.8,116.21,277.81,130.11,297.46,129.88Z"/><path class="cls-2" d="M311.58,118.64C325.92,94.5,285.76,82.3,284,80.79c-9.06-5-13.87-11-11.18-21.22,0,0-15.65,15.67,8.62,30.77C300.73,102.88,312.27,100.68,311.58,118.64Z"/><path class="cls-1" d="M388.28,230.82h-3.67c20.6-23.28,32.76-54.14,32.76-85.27a127.34,127.34,0,0,0-254.68,0c0,30.78,12.63,62.11,32.83,85.27h-3.74A130.09,130.09,0,0,1,290,15.46c71.73,0,130.09,58.36,130.09,130.09C420.12,177.35,409.33,207,388.28,230.82Z"/><path class="cls-2" d="M21.1,272.72a9.59,9.59,0,0,0-6.8,2.45,7.92,7.92,0,0,0-.59,11.2,21.53,21.53,0,0,0,5.12,3.86q3.09,1.72,6.63,3.31a34.88,34.88,0,0,1,6.62,3.9,20.36,20.36,0,0,1,5.12,5.62,16,16,0,0,1,2,8.48,19.63,19.63,0,0,1-1.72,8.3,18.21,18.21,0,0,1-4.9,6.44,21.71,21.71,0,0,1-7.57,4.08,32.21,32.21,0,0,1-9.84,1.41,33.71,33.71,0,0,1-8.75-1A17,17,0,0,1,.6,328.14c.61-2.11,1.12-4.05,1.55-5.8s.78-3.66,1.09-5.72H5a12,12,0,0,0,3.9,6.9,11.29,11.29,0,0,0,3.72,2.13,14.69,14.69,0,0,0,4.9.77c3.62,0,6.3-.91,8-2.72a9.11,9.11,0,0,0,2.59-6.53,8,8,0,0,0-2-5.63,19.84,19.84,0,0,0-5-3.85q-3-1.68-6.53-3.26A34,34,0,0,1,8,300.57a19.48,19.48,0,0,1-5-5.58,16.13,16.13,0,0,1-2-8.48,19.65,19.65,0,0,1,1.68-8.34,17.82,17.82,0,0,1,4.49-6.08,19.46,19.46,0,0,1,6.48-3.72,23.52,23.52,0,0,1,7.76-1.27A28.31,28.31,0,0,1,30,268.28a19.78,19.78,0,0,1,6.3,3.27c-.54,1.39-1,2.73-1.4,4s-.9,2.95-1.5,4.94H32.08Q29.17,272.72,21.1,272.72Z"/><path class="cls-2" d="M106.36,330.59c-1.45-.12-2.82-.18-4.12-.18H94.53c-1.3,0-2.59.06-3.86.18q-1.45-4.44-3-9.07t-3.27-9.25c-1.93-.06-3.87-.1-5.8-.14s-3.87,0-5.81,0c-1.57,0-3.14,0-4.71,0s-3.15.08-4.72.14q-1.82,4.62-3.36,9.25c-1,3.08-2,6.11-2.81,9.07a12.94,12.94,0,0,0-2.13-.18H50.76a16.75,16.75,0,0,0-2.35.18q1.08-2.35,2.9-6.53t4-9.43L60,303.34q2.49-6,5-12.2L69.86,279q2.4-6,4.4-11.15c.6.12,1.17.22,1.72.31a10.64,10.64,0,0,0,3.44,0c.55-.09,1.12-.19,1.73-.31l6.21,16.51q3.31,8.79,6.67,17.27t6.53,16.1Q103.73,325.33,106.36,330.59Zm-32.1-45.26q-2.37,5.44-4.45,10.75t-4.08,10.84h16.6q-2-5.54-4-10.84T74.26,285.33Z"/><path class="cls-2" d="M121.05,286.33q0-6.25-.18-10.52t-.27-7.53a24.52,24.52,0,0,0,4.08.45,24.52,24.52,0,0,0,4.08-.45q9.88,11,19.55,21.59t19.82,21.58V294.77q0-4.45,0-8.76c0-2.87-.06-5.52-.09-7.93s-.09-4.51-.18-6.26a29.76,29.76,0,0,0-.32-3.54,18.72,18.72,0,0,0,8.16,0q-.45,8.25-.72,14.92t-.45,12.56c-.13,3.93-.2,7.82-.23,11.66s-.05,7.93-.05,12.29v10.88q-1.81-.18-3.72-.18a30.6,30.6,0,0,0-3.53.18q-18.69-21.76-39.64-43.81c-.06,1.76-.1,3.51-.13,5.26s-.05,3.54-.05,5.36v10.52c0,3.62,0,6.71.05,9.25s.07,4.68.13,6.44.12,3.19.18,4.31.12,2,.18,2.67a13.24,13.24,0,0,0-2.17-.18h-2.09q-2.09,0-4.17.18a50.45,50.45,0,0,0,.45-5.17q.27-4.44.59-10.84t.55-13.87Q121.06,293.23,121.05,286.33Z"/><path class="cls-2" d="M230.17,310.27q-.73,10.17-1.45,20.32a13.45,13.45,0,0,0-2.18-.18h-4.22a13.12,13.12,0,0,0-2.13.18q2.9-15.6,5.17-31t4.17-31.29l1.86.32a12.16,12.16,0,0,0,1.86.13,11.54,11.54,0,0,0,1.72-.13c.61-.09,1.24-.2,1.91-.32q2.44,5.45,5.12,11.07l5.35,11.2q2.68,5.58,5.36,10.93t5.12,10.15q5.44-10.15,10.84-21.26T279,268.28a20.45,20.45,0,0,0,3.9.45,20.15,20.15,0,0,0,3.81-.45q.91,7.8,1.95,16.78t2,17.55q1,8.58,2,16t1.81,12c-1.21-.12-2.43-.18-3.67-.18h-7.39q-1.91,0-3.81.18-.47-9.33-1.5-20.22T276,288.78h-.18q-5.18,10.7-10.16,21t-9.89,20.77a6.9,6.9,0,0,0-.86-.13,7.42,7.42,0,0,0-1.72,0,7.19,7.19,0,0,0-.86.13q-4.91-10.15-9.75-20.32t-10-20.59h-.18Q230.9,300.12,230.17,310.27Z"/><path class="cls-2" d="M310.43,280q-.18-5.86-.54-11.75c1,.12,2.15.23,3.36.32s2.57.13,4.08.13,2.87,0,4.08-.13,2.33-.2,3.35-.32q-.36,5.89-.54,11.75T324,293.4v12.34q0,7.53.18,13.38t.54,11.47a28.83,28.83,0,0,0-3.35-.18h-8.16a29.13,29.13,0,0,0-3.36.18q.36-5.62.54-11.47t.19-13.38V293.4Q310.62,285.89,310.43,280Z"/><path class="cls-2" d="M389.52,275.22a21.6,21.6,0,0,0-26.25,4.58,27.2,27.2,0,0,0-5.22,8.84,35.43,35.43,0,0,0-2,12.47,32.46,32.46,0,0,0,1.49,10.07,24,24,0,0,0,4.31,8,19.72,19.72,0,0,0,6.89,5.31,21.9,21.9,0,0,0,9.35,1.9c.78,0,1.67-.05,2.67-.14s2-.19,2.9-.32a19.91,19.91,0,0,0,2.59-.49,6.14,6.14,0,0,0,1.72-.68,20.7,20.7,0,0,0,.23-2.73c0-1.08,0-2.29,0-3.62q0-7.35-.27-10.84c-.18-2.33-.3-3.92-.36-4.76.6.12,1.41.22,2.4.32s2.44.13,4.31.13c2.18,0,3.8-.05,4.85-.13s1.89-.2,2.5-.32a16.35,16.35,0,0,0-.32,2.36c-.09,1.08-.17,2.34-.23,3.76s-.1,2.93-.13,4.53-.05,3.13-.05,4.58v3c0,1.51,0,2.92.05,4.22a15.19,15.19,0,0,0,.23,2.76,103.41,103.41,0,0,1-12.12,2.72,74.53,74.53,0,0,1-12.1,1,48.33,48.33,0,0,1-14.38-2,32.86,32.86,0,0,1-11.34-6,27.85,27.85,0,0,1-7.43-9.52,28.61,28.61,0,0,1-2.68-12.56,37,37,0,0,1,2.86-15.1,29.69,29.69,0,0,1,7.89-10.8,33.64,33.64,0,0,1,11.93-6.48,49.13,49.13,0,0,1,14.87-2.18,44.57,44.57,0,0,1,11.93,1.41,48.6,48.6,0,0,1,9.93,4c-.49,1.58-.95,3.12-1.41,4.63a47.17,47.17,0,0,0-1.13,4.62h-1.27A22.51,22.51,0,0,0,389.52,275.22Z"/><path class="cls-2" d="M447.75,331.77a46,46,0,0,1-10.83-1.22,23.15,23.15,0,0,1-8.76-4.09,19.75,19.75,0,0,1-5.85-7.34,25.36,25.36,0,0,1-2.13-10.93q0-3.63.05-6.49c0-1.9,0-3.67,0-5.3s0-3.21.05-4.72,0-3.08,0-4.71q0-7.35-.09-11.89t-.27-6.8c1.21.12,2.45.23,3.72.32s2.51.13,3.72.13,2.45,0,3.72-.13,2.5-.2,3.72-.32q-.92,8.81-1.09,16.37T433.6,300a61.37,61.37,0,0,0,1.18,13.33,18.61,18.61,0,0,0,3.5,7.84,11,11,0,0,0,5.66,3.68,30.27,30.27,0,0,0,7.8.91q5.44,0,8.53-2.73a16.83,16.83,0,0,0,4.67-7.25,38.63,38.63,0,0,0,1.95-10.39q.36-5.85.36-12.2t-.18-12.47q-.18-6.21-.54-12.47c.84.12,1.66.23,2.45.32a19,19,0,0,0,2.17.13,18.37,18.37,0,0,0,2.27-.13c.73-.09,1.48-.2,2.27-.32-.12,1.33-.24,3.12-.36,5.35s-.24,4.82-.37,7.76-.22,6.16-.31,9.7-.14,7.27-.14,11.2q0,15.78-6.8,22.63T447.75,331.77Z"/><path class="cls-2" d="M494.19,280q-.18-5.86-.54-11.75,4.08.09,8.07.27t8.07.18q6.72,0,11.93-.13t7-.32a16.37,16.37,0,0,0-.36,3.81,19.51,19.51,0,0,0,.09,2.27c.06.54.15,1.15.27,1.81q-2.62-.18-5.76-.36l-6.08-.36c-2-.13-3.73-.22-5.3-.28s-2.69-.09-3.36-.09c-.24,3.33-.38,6.62-.41,9.89s0,6.56,0,9.89c3.93-.07,7.48-.15,10.65-.28s6.49-.27,9.94-.45c-.18,1-.31,1.81-.37,2.36a15.68,15.68,0,0,0-.09,1.72,8.82,8.82,0,0,0,.14,1.5c.09.51.19,1.25.32,2.22q-10.35-.81-20.59-.82c0,1.94,0,3.87-.05,5.81s0,3.87,0,5.8q0,5.89.27,11.34,5.16,0,10.34-.27c3.45-.18,6.92-.48,10.43-.91-.12.67-.21,1.27-.27,1.82a28.55,28.55,0,0,0,0,4.53,6.79,6.79,0,0,0,.27,1.36c-1.63-.06-3.64-.11-6-.13s-5.67,0-9.84,0H498.5c-1.36,0-2.39,0-3.08,0s-1.29.07-1.77.13q.36-5.62.54-11.47t.18-13.38V293.4Q494.37,285.89,494.19,280Z"/><path class="cls-2" d="M544.89,280q-.18-5.86-.54-11.75c1,.12,2.14.23,3.35.32s2.57.13,4.09.13,2.87,0,4.08-.13,2.32-.2,3.35-.32q-.36,5.89-.54,11.75t-.18,13.37v12.34c0,3.45,0,6.77,0,10s.08,6,.14,8.34q5.16,0,10.34-.27c3.45-.18,6.92-.48,10.43-.91-.12.67-.22,1.27-.27,1.82a25.7,25.7,0,0,0,0,4.53,6.15,6.15,0,0,0,.27,1.36c-1.63-.06-3.65-.11-6-.13s-5.67,0-9.84,0H549.2c-1.36,0-2.39,0-3.08,0s-1.29.07-1.77.13q.36-5.62.54-11.47t.18-13.38V293.4Q545.07,285.89,544.89,280Z"/><path class="cls-1" d="M0,348.17H550.05a30,30,0,0,1,30,30v34.19a0,0,0,0,1,0,0H30a30,30,0,0,1-30-30V348.17A0,0,0,0,1,0,348.17Z"/><text class="cls-3" transform="translate(43.16 397.22)">SE<tspan class="cls-4" x="54.42" y="0">R</tspan><tspan class="cls-5" x="85.29" y="0">VICIOS LEGALES</tspan></text></g></g></svg>