<svg xmlns="http://www.w3.org/2000/svg" viewBox="0 0 158.53 158.53"><defs><style>.cls-1{fill:#005092;}.cls-2{fill:#fff;}</style></defs><g id="Capa_2" data-name="Capa 2"><g id="Object"><circle class="cls-1" cx="79.27" cy="79.27" r="79.27"/><path class="cls-2" d="M79.32,48.13q18.6,0,37.19,0a7.37,7.37,0,0,1,7.13,6.34,27.4,27.4,0,0,1,.14,3.51q0,22.26,0,44.52a7.64,7.64,0,0,1-6.39,7.85,6.72,6.72,0,0,1-1.27.06q-36.88,0-73.78,0a7.53,7.53,0,0,1-7.6-7.8q0-22,0-43.93a35,35,0,0,1,.12-4.1,7.54,7.54,0,0,1,7.56-6.49c12.3.06,24.59,0,36.89,0ZM44.05,53.65l.6.59Q58.3,66.74,72,79.21c1.73,1.57,3.59,3,5.46,4.39a2.9,2.9,0,0,0,3.62,0,48.67,48.67,0,0,0,4.48-3.47q14.17-12.9,28.3-25.88c.19-.17.36-.36.62-.63Zm47.12,30-3.73,3.39A12.34,12.34,0,0,1,71,87l-3.69-3.33L44.23,104.88H114.3Zm-50.85-25V101l23-21.47C55.66,72.56,48,65.65,40.32,58.66ZM118.18,101V58.67l-23,20.85Z"/></g></g></svg>