<svg xmlns="http://www.w3.org/2000/svg" viewBox="0 0 158.53 158.53"><defs><style>.cls-1{fill:#005092;}.cls-2{fill:#fff;}</style></defs><g id="Capa_2" data-name="Capa 2"><g id="Object"><circle class="cls-1" cx="79.27" cy="79.27" r="79.27"/><path id="path17-6" class="cls-2" d="M112,96.57c-2.41-1.9-5-3.6-7.52-5.34-5-3.48-9.67-3.75-13.44,1.84C88.94,96.21,86,96.35,82.88,95c-8.54-3.79-15.13-9.64-19-18.16-1.71-3.76-1.69-7.13,2.31-9.8,2.12-1.41,4.25-3.07,4.08-6.15-.23-4-10.17-17.43-14.09-18.84a7.27,7.27,0,0,0-4.89,0c-9.21,3-13,10.46-9.37,19.24C52.82,87.46,72,105.71,98.37,116.85a25.68,25.68,0,0,0,4,1.11c6,.06,13-5.61,15.07-11.24,2-5.41-2.17-7.56-5.44-10.15Z"/><path id="path19-1" class="cls-2" d="M82.44,44.71c19.29,2.91,28.18,11.9,30.63,30.94.23,1.76-.44,4.41,2.12,4.46s2-2.56,2.06-4.32c.22-17.93-15.73-34.56-34.26-35.17-1.4.2-4.29-.95-4.47,2.12-.11,2.07,2.32,1.73,3.92,2Z"/><path id="path21-2" class="cls-2" d="M86.21,49.93c-1.86-.22-4.3-1.08-4.74,1.45s2.28,2.38,4,2.76c11.91,2.61,16.06,6.86,18,18.45.29,1.69-.28,4.31,2.65,3.88,2.17-.32,1.38-2.58,1.56-3.89.1-11.12-9.62-21.25-21.52-22.65Z"/><path id="path23" class="cls-2" d="M87.3,59c-1.23,0-2.45.16-2.91,1.45-.68,1.94.76,2.41,2.22,2.64,4.89.76,7.46,3.59,8,8.37.13,1.29,1,2.34,2.25,2.2,1.77-.21,1.93-1.75,1.88-3.22C98.77,65.1,92.58,58.9,87.3,59Z"/></g></g></svg>