<svg xmlns="http://www.w3.org/2000/svg" viewBox="0 0 158.53 158.53"><defs><style>.cls-1{fill:#005092;}.cls-2,.cls-3{fill:#fff;}.cls-3{fill-rule:evenodd;}</style></defs><g id="Capa_2" data-name="Capa 2"><g id="Object"><circle class="cls-1" cx="79.27" cy="79.27" r="79.27"/><path class="cls-2" d="M37.49,121.15l6-22.41A41.51,41.51,0,1,1,60,115.11Zm23.64-14.43,1.42.84A33.66,33.66,0,1,0,51,96.15l.87,1.43-3.35,12.51Z"/><path class="cls-3" d="M95.06,84.51c-1.7-1-3.92-2.16-5.92-1.34-1.54.63-2.52,3-3.52,4.27a1.49,1.49,0,0,1-1.91.42A26.81,26.81,0,0,1,70.32,76.38a1.64,1.64,0,0,1,.21-2.24c1-1.13,2.17-2.42,2.43-4a8.64,8.64,0,0,0-1.09-4.67c-.8-1.74-1.71-4.22-3.45-5.2a4.71,4.71,0,0,0-5.13.76,10.39,10.39,0,0,0-3.62,8.26A11.53,11.53,0,0,0,60,72a21.6,21.6,0,0,0,2.51,5.8,47.34,47.34,0,0,0,2.63,4A40.67,40.67,0,0,0,76.52,92.32a34.2,34.2,0,0,0,7.1,3.37c2.78.92,5.26,1.88,8.27,1.31s6.24-2.54,7.49-5.57a4.83,4.83,0,0,0,.35-2.85C99.3,86.62,96.65,85.46,95.06,84.51Z"/></g></g></svg>